<svg width="32" height="32" viewBox="0 0 32 32" fill="none" xmlns="http://www.w3.org/2000/svg">
<mask id="mask0_351_2500" style="mask-type:alpha" maskUnits="userSpaceOnUse" x="0" y="0" width="32" height="32">
<rect width="32" height="32" fill="#D9D9D9"/>
</mask>
<g mask="url(#mask0_351_2500)">
<path d="M8.66668 21.9999V12.6666C8.66668 12.4777 8.73069 12.3194 8.85869 12.1916C8.98669 12.0638 9.14524 11.9999 9.33435 11.9999C9.52346 11.9999 9.68168 12.0638 9.80902 12.1916C9.93635 12.3194 10 12.4777 10 12.6666V21.9999C10 22.1888 9.93602 22.3472 9.80802 22.4749C9.68002 22.6027 9.52146 22.6666 9.33235 22.6666C9.14324 22.6666 8.98502 22.6027 8.85769 22.4749C8.73035 22.3472 8.66668 22.1888 8.66668 21.9999ZM15.3334 21.9999V12.6666C15.3334 12.4777 15.3974 12.3194 15.5254 12.1916C15.6534 12.0638 15.8119 11.9999 16.001 11.9999C16.1901 11.9999 16.3484 12.0638 16.4757 12.1916C16.603 12.3194 16.6667 12.4777 16.6667 12.6666V21.9999C16.6667 22.1888 16.6027 22.3472 16.4747 22.4749C16.3467 22.6027 16.1881 22.6666 15.999 22.6666C15.8099 22.6666 15.6517 22.6027 15.5244 22.4749C15.397 22.3472 15.3334 22.1888 15.3334 21.9999ZM5.38468 26.6666C5.1958 26.6666 5.03746 26.6026 4.90968 26.4746C4.78191 26.3466 4.71802 26.1881 4.71802 25.9989C4.71802 25.8098 4.78191 25.6516 4.90968 25.5243C5.03746 25.3969 5.1958 25.3333 5.38468 25.3333H26.6154C26.8042 25.3333 26.9626 25.3973 27.0904 25.5253C27.2181 25.6533 27.282 25.8118 27.282 26.0009C27.282 26.19 27.2181 26.3483 27.0904 26.4756C26.9626 26.6029 26.8042 26.6666 26.6154 26.6666H5.38468ZM22 21.9999V12.6666C22 12.4777 22.064 12.3194 22.192 12.1916C22.32 12.0638 22.4786 11.9999 22.6677 11.9999C22.8568 11.9999 23.015 12.0638 23.1424 12.1916C23.2697 12.3194 23.3334 12.4777 23.3334 12.6666V21.9999C23.3334 22.1888 23.2694 22.3472 23.1414 22.4749C23.0134 22.6027 22.8548 22.6666 22.6657 22.6666C22.4766 22.6666 22.3184 22.6027 22.191 22.4749C22.0637 22.3472 22 22.1888 22 21.9999ZM26.718 9.33327H5.22568C5.08457 9.33327 4.96468 9.28427 4.86602 9.18627C4.76735 9.08805 4.71802 8.96894 4.71802 8.82894V8.5206C4.71802 8.41794 4.74391 8.32983 4.79568 8.25627C4.84724 8.18271 4.91535 8.12294 5.00002 8.07694L15.082 3.2666C15.37 3.12305 15.6749 3.05127 15.9967 3.05127C16.3185 3.05127 16.6256 3.12305 16.918 3.2666L26.959 8.0436C27.0497 8.10338 27.1261 8.17605 27.1884 8.2616C27.2508 8.34694 27.282 8.44405 27.282 8.55294V8.7756C27.282 8.94405 27.2311 9.07905 27.1294 9.1806C27.0278 9.28238 26.8907 9.33327 26.718 9.33327ZM8.24102 7.99994H23.759L16.359 4.48727C16.2392 4.43594 16.1196 4.41027 16 4.41027C15.8805 4.41027 15.7608 4.43594 15.641 4.48727L8.24102 7.99994Z" fill="#436C68"/>
</g>
</svg>
