<svg width="32" height="32" viewBox="0 0 32 32" fill="none" xmlns="http://www.w3.org/2000/svg">
<mask id="mask0_351_2479" style="mask-type:alpha" maskUnits="userSpaceOnUse" x="0" y="0" width="32" height="32">
<rect width="32" height="32" fill="#D9D9D9"/>
</mask>
<g mask="url(#mask0_351_2479)">
<path d="M12.2308 28.9256C11.2085 28.9256 10.3132 28.6162 9.54487 27.9974C8.77649 27.3786 8.247 26.5854 7.9564 25.6179C7.68631 26.0675 7.31323 26.4115 6.83717 26.65C6.3611 26.8884 5.85982 27.0077 5.33333 27.0077C4.40511 27.0077 3.6175 26.6829 2.9705 26.0333C2.3235 25.3837 2 24.5974 2 23.6743C2 22.8555 2.28547 22.1098 2.8564 21.4371C3.42733 20.7645 4.14784 20.4239 5.01793 20.4154C4.57007 20.0051 4.2158 19.5115 3.95513 18.9346C3.69444 18.3577 3.5641 17.7572 3.5641 17.1333C3.5641 16.5504 3.68973 15.9889 3.941 15.4487C4.19229 14.9085 4.55212 14.4436 5.0205 14.0538C5.14699 13.9085 5.29699 13.826 5.4705 13.8064C5.64401 13.7867 5.80341 13.8401 5.9487 13.9666C6.09401 14.0931 6.1735 14.2431 6.18717 14.4166C6.20086 14.5901 6.14444 14.7495 6.01793 14.8948C5.65556 15.1923 5.38377 15.5367 5.20257 15.9282C5.02137 16.3196 4.93077 16.7325 4.93077 17.1666C4.93077 18.5051 5.41239 19.3794 6.37563 19.7897C7.33888 20.2 8.35042 20.5085 9.41027 20.7153C9.50256 20.7427 9.57948 20.7794 9.64103 20.8256C9.70257 20.8717 9.76069 20.9299 9.8154 21C9.87009 21.0701 9.89444 21.1457 9.88847 21.2269C9.88249 21.3081 9.86326 21.3948 9.83077 21.4871C9.59146 22.1384 9.4094 22.6965 9.2846 23.1615C9.15982 23.6265 9.09743 24.0564 9.09743 24.4513C9.09743 25.2889 9.40042 26.0175 10.0064 26.6371C10.6124 27.2568 11.3453 27.5666 12.2051 27.5666C13.0701 27.5666 13.7923 27.2688 14.3718 26.673C14.9513 26.0773 15.4346 25.3483 15.8218 24.4859C16.209 23.6235 16.5167 22.7111 16.7449 21.7487C16.9731 20.7863 17.1624 19.9384 17.3128 19.2051C17.3624 18.9812 17.4658 18.8064 17.6231 18.6807C17.7803 18.5551 17.9513 18.5222 18.1359 18.582C18.3427 18.6418 18.4893 18.7658 18.5756 18.9538C18.662 19.1418 18.6778 19.3478 18.6231 19.5718C18.4402 20.4743 18.2145 21.4692 17.9462 22.5564C17.6778 23.6436 17.3081 24.6589 16.8372 25.6025C16.3662 26.5461 15.7637 27.3359 15.0295 27.9718C14.2953 28.6077 13.3624 28.9256 12.2308 28.9256ZM19.7 28.9512C19.5051 28.9341 19.3397 28.8619 19.2038 28.7346C19.0679 28.6072 19.0085 28.4487 19.0256 28.2589C19.0427 28.0692 19.1192 27.9063 19.2551 27.7704C19.391 27.6345 19.5538 27.5751 19.7436 27.5922C20.6086 27.5922 21.3483 27.2824 21.9628 26.6628C22.5773 26.0431 22.8846 25.3034 22.8846 24.4435C22.8846 24.0316 22.8167 23.5935 22.6808 23.1294C22.5449 22.6653 22.3547 22.094 22.1103 21.4153C22.0829 21.3452 22.0692 21.2764 22.0692 21.2089C22.0692 21.1414 22.0966 21.0752 22.1513 21.0102C22.206 20.9452 22.259 20.8952 22.3103 20.8602C22.3615 20.8252 22.4248 20.7939 22.5 20.7666C23.582 20.5597 24.6154 20.2439 25.6 19.8192C26.5846 19.3944 27.0769 18.5076 27.0769 17.1589C27.0769 16.082 26.6979 15.2837 25.9397 14.764C25.1816 14.2444 24.3282 13.9846 23.3795 13.9846C22.5675 13.9846 21.6291 14.1136 20.5641 14.3717C19.4991 14.6298 18.2855 14.9786 16.9231 15.4179C16.6991 15.4777 16.4906 15.4781 16.2974 15.4192C16.1043 15.3602 15.9778 15.2273 15.9179 15.0204C15.8581 14.8136 15.8923 14.6247 16.0205 14.4538C16.1487 14.2828 16.3162 14.1675 16.5231 14.1076C17.8718 13.6803 19.0915 13.3222 20.1821 13.0333C21.2727 12.7444 22.2898 12.6 23.2333 12.6C24.5786 12.6 25.7778 12.9957 26.8308 13.7871C27.8838 14.5786 28.4103 15.7025 28.4103 17.1589C28.4103 17.7829 28.2842 18.3705 28.0321 18.9218C27.7799 19.4731 27.4299 19.9709 26.9821 20.4154C27.8522 20.441 28.5727 20.7816 29.1436 21.4371C29.7145 22.0927 30 22.8384 30 23.6743C30 24.5803 29.6765 25.3624 29.0295 26.0205C28.3825 26.6786 27.5949 27.0077 26.6667 27.0077C26.1402 27.0077 25.6389 26.8884 25.1628 26.65C24.6868 26.4115 24.3137 26.0675 24.0436 25.6179C23.753 26.5803 23.2162 27.3752 22.4333 28.0025C21.6504 28.6299 20.7393 28.9461 19.7 28.9512ZM12.7872 19.5718C11.1615 18.1017 9.84614 16.7718 8.84103 15.582C7.8359 14.3923 7.33333 13.0983 7.33333 11.7C7.33333 10.4435 7.76368 9.385 8.62437 8.52433C9.48503 7.66364 10.5436 7.23329 11.8 7.23329C12.0427 7.23329 12.2615 7.24739 12.4564 7.27559C12.6513 7.30379 12.8359 7.34354 13.0103 7.39483C12.9043 7.1897 12.8205 6.98029 12.759 6.76663C12.6974 6.55294 12.6667 6.32387 12.6667 6.07943C12.6667 5.15636 12.9915 4.37004 13.641 3.72046C14.2906 3.07088 15.0769 2.74609 16 2.74609C16.9231 2.74609 17.7094 3.07088 18.359 3.72046C19.0085 4.37004 19.3333 5.15636 19.3333 6.07943C19.3333 6.32387 19.3026 6.55165 19.241 6.76276C19.1795 6.97387 19.0957 7.18199 18.9897 7.38713C19.1487 7.33584 19.3333 7.29738 19.5436 7.27176C19.7538 7.24612 19.9726 7.23329 20.2 7.23329C20.9487 7.23329 21.6312 7.40765 22.2474 7.75636C22.8637 8.10507 23.3684 8.56575 23.7615 9.1384C23.8846 9.27515 23.9385 9.43156 23.9231 9.60763C23.9077 9.78372 23.8316 9.9333 23.6949 10.0564C23.5581 10.1795 23.4017 10.2333 23.2256 10.2179C23.0496 10.2025 22.9 10.1265 22.7769 9.9897C22.5034 9.55552 22.1462 9.2098 21.7051 8.95253C21.2641 8.69526 20.7624 8.56663 20.2 8.56663C19.4034 8.56663 18.7628 8.77091 18.2782 9.17946C17.7936 9.588 17.1752 10.2239 16.4231 11.0871C16.3632 11.1521 16.2923 11.2008 16.2103 11.2333C16.1282 11.2658 16.0496 11.282 15.9744 11.282C15.8991 11.282 15.8235 11.2658 15.7474 11.2333C15.6714 11.2008 15.6034 11.1521 15.5436 11.0871C14.7863 10.1846 14.1637 9.53885 13.6756 9.14996C13.1876 8.76107 12.5624 8.56663 11.8 8.56663C10.9009 8.56663 10.1539 8.86406 9.55897 9.45893C8.9641 10.0538 8.66667 10.8008 8.66667 11.7C8.66667 12.6846 9.10983 13.7209 9.99617 14.8089C10.8825 15.897 12.1214 17.1701 13.7128 18.6282C13.8872 18.7752 14.0021 18.9534 14.0577 19.1628C14.1133 19.3722 14.0675 19.5504 13.9205 19.6974C13.7684 19.8495 13.585 19.9047 13.3705 19.8628C13.156 19.8209 12.9615 19.7239 12.7872 19.5718ZM5.33333 25.6743C5.88204 25.6743 6.35256 25.4782 6.74487 25.0859C7.13718 24.6936 7.33333 24.223 7.33333 23.6743C7.33333 23.1256 7.13718 22.6551 6.74487 22.2628C6.35256 21.8705 5.88204 21.6743 5.33333 21.6743C4.7846 21.6743 4.31409 21.8705 3.9218 22.2628C3.52949 22.6551 3.33333 23.1256 3.33333 23.6743C3.33333 24.223 3.52949 24.6936 3.9218 25.0859C4.31409 25.4782 4.7846 25.6743 5.33333 25.6743ZM16 8.07943C16.5487 8.07943 17.0192 7.88327 17.4115 7.49096C17.8038 7.09867 18 6.62816 18 6.07943C18 5.53072 17.8038 5.06021 17.4115 4.6679C17.0192 4.27558 16.5487 4.07943 16 4.07943C15.4513 4.07943 14.9808 4.27558 14.5885 4.6679C14.1962 5.06021 14 5.53072 14 6.07943C14 6.62816 14.1962 7.09867 14.5885 7.49096C14.9808 7.88327 15.4513 8.07943 16 8.07943ZM26.7 25.6743C27.2487 25.6743 27.7137 25.4782 28.0949 25.0859C28.4761 24.6936 28.6667 24.223 28.6667 23.6743C28.6667 23.1256 28.4705 22.6496 28.0782 22.2461C27.6859 21.8427 27.2154 21.641 26.6667 21.641C26.118 21.641 25.6474 21.8372 25.2551 22.2295C24.8628 22.6218 24.6667 23.0923 24.6667 23.641C24.6667 24.1897 24.8684 24.6658 25.2718 25.0692C25.6752 25.4726 26.1513 25.6743 26.7 25.6743Z" fill="#436C68"/>
</g>
</svg>
