<svg width="32" height="32" viewBox="0 0 32 32" fill="none" xmlns="http://www.w3.org/2000/svg">
<mask id="mask0_351_2494" style="mask-type:alpha" maskUnits="userSpaceOnUse" x="0" y="0" width="32" height="32">
<rect width="32" height="32" fill="#D9D9D9"/>
</mask>
<g mask="url(#mask0_351_2494)">
<path d="M15.6023 26.5897C15.7767 26.5897 15.9553 26.5504 16.1382 26.4718C16.3212 26.3932 16.469 26.2974 16.5818 26.1846L26.9767 15.7897C27.3118 15.4547 27.5703 15.112 27.7523 14.7615C27.9344 14.4111 28.0254 14.0265 28.0254 13.6077C28.0254 13.1838 27.9344 12.7722 27.7523 12.3731C27.5703 11.9739 27.3118 11.6094 26.9767 11.2795L21.9767 6.2795C21.6468 5.94445 21.3079 5.69872 20.96 5.5423C20.6122 5.3859 20.2263 5.3077 19.8023 5.3077C19.3835 5.3077 18.9947 5.3859 18.6357 5.5423C18.2767 5.69872 17.9382 5.94445 17.6203 6.2795L16.4587 7.44103L18.9254 9.91536C19.1904 10.1752 19.3878 10.4709 19.5177 10.8026C19.6477 11.1342 19.7126 11.4709 19.7126 11.8128C19.7126 12.5068 19.4857 13.0808 19.0318 13.5346C18.578 13.9885 18.0041 14.2154 17.31 14.2154C16.9682 14.2154 16.6344 14.1633 16.3087 14.059C15.9831 13.9547 15.6904 13.7727 15.4305 13.5128L13.469 11.559C13.3152 11.4051 13.1186 11.3282 12.8793 11.3282C12.6399 11.3282 12.4434 11.4051 12.2895 11.559L7.12284 16.7256C6.98779 16.8607 6.88652 17.0141 6.81901 17.1859C6.75147 17.3577 6.71771 17.5308 6.71771 17.7051C6.71771 18.0197 6.81856 18.2791 7.02027 18.4833C7.22198 18.6876 7.48011 18.7897 7.79464 18.7897C7.969 18.7897 8.14763 18.7504 8.33054 18.6718C8.51345 18.5932 8.66132 18.4974 8.77414 18.3846L12.528 14.6308C12.6528 14.506 12.8045 14.438 12.9831 14.4269C13.1617 14.4158 13.3246 14.4838 13.4716 14.6308C13.6134 14.7727 13.6844 14.9299 13.6844 15.1026C13.6844 15.2752 13.6134 15.4325 13.4716 15.5744L9.72541 19.3282C9.59036 19.4632 9.48908 19.6167 9.42157 19.7885C9.35404 19.9603 9.32027 20.1333 9.32027 20.3077C9.32027 20.6051 9.42541 20.859 9.63567 21.0692C9.84592 21.2795 10.0998 21.3846 10.3972 21.3846C10.5716 21.3846 10.7502 21.3453 10.9331 21.2667C11.116 21.188 11.2639 21.0923 11.3767 20.9795L15.4382 16.9256C15.563 16.8009 15.7147 16.7329 15.8934 16.7218C16.072 16.7107 16.2348 16.7786 16.3818 16.9256C16.5237 17.0675 16.5946 17.2248 16.5946 17.3974C16.5946 17.5701 16.5237 17.7274 16.3818 17.8692L12.328 21.9308C12.21 22.0436 12.113 22.1915 12.0369 22.3744C11.9609 22.5573 11.9228 22.7359 11.9228 22.9103C11.9228 23.2077 12.028 23.4615 12.2382 23.6718C12.4485 23.882 12.7023 23.9872 12.9998 23.9872C13.1741 23.9872 13.3472 23.9534 13.519 23.8859C13.6908 23.8184 13.8442 23.7171 13.9793 23.5821L18.0408 19.5282C18.1656 19.4034 18.3173 19.3355 18.4959 19.3244C18.6746 19.3133 18.8374 19.3812 18.9844 19.5282C19.1263 19.6701 19.1972 19.8274 19.1972 20C19.1972 20.1726 19.1263 20.3299 18.9844 20.4718L14.9228 24.5333C14.7878 24.6684 14.6865 24.8303 14.619 25.0192C14.5515 25.2081 14.5177 25.3812 14.5177 25.5385C14.5177 25.853 14.6284 26.1068 14.8498 26.3C15.0712 26.4932 15.322 26.5897 15.6023 26.5897ZM15.5946 27.9231C14.9092 27.9231 14.3224 27.6722 13.8344 27.1705C13.3464 26.6688 13.1323 26.0496 13.1921 25.3128C12.4365 25.3214 11.8075 25.0957 11.3049 24.6359C10.8023 24.1761 10.5639 23.5342 10.5895 22.7103C9.76557 22.7188 9.11643 22.4833 8.64207 22.0039C8.16772 21.5244 7.95191 20.8923 7.99464 20.1077C7.25275 20.1162 6.63224 19.9077 6.13311 19.4821C5.63395 19.0564 5.38437 18.4641 5.38437 17.7051C5.38437 17.3632 5.45062 17.0209 5.58311 16.6782C5.71557 16.3355 5.91173 16.0342 6.17157 15.7744L11.3639 10.582C11.7724 10.1735 12.2763 9.96923 12.8754 9.96923C13.4746 9.96923 13.9784 10.1735 14.3869 10.582L16.3228 12.5179C16.4357 12.6359 16.575 12.7329 16.7408 12.809C16.9066 12.885 17.0938 12.9231 17.3023 12.9231C17.5878 12.9231 17.8399 12.8235 18.0587 12.6244C18.2775 12.4252 18.3869 12.1658 18.3869 11.8462C18.3869 11.6376 18.3489 11.4504 18.2728 11.2846C18.1968 11.1188 18.0998 10.9795 17.9818 10.8667L13.3946 6.2795C13.0647 5.94445 12.7216 5.69872 12.3652 5.5423C12.0088 5.3859 11.6186 5.3077 11.1946 5.3077C10.7758 5.3077 10.3955 5.3859 10.0536 5.5423C9.71174 5.69872 9.37328 5.94445 9.03824 6.2795L4.97927 10.3462C4.69378 10.6316 4.46301 10.9718 4.28694 11.3667C4.11087 11.7615 4.01772 12.1692 4.00747 12.5897C3.99721 12.8906 4.02284 13.1799 4.08437 13.4577C4.14593 13.7355 4.24337 13.9966 4.37671 14.241L3.36644 15.2513C3.14251 14.894 2.96728 14.4825 2.84077 14.0167C2.71428 13.5508 2.65617 13.0752 2.66644 12.5897C2.67668 11.9846 2.79805 11.4047 3.03054 10.85C3.26301 10.2953 3.59548 9.8017 4.02797 9.36923L8.06131 5.3359C8.52626 4.87605 9.01814 4.53416 9.53694 4.31023C10.0558 4.08632 10.6169 3.97437 11.2203 3.97437C11.8237 3.97437 12.3805 4.08632 12.8908 4.31023C13.4011 4.53416 13.8861 4.87605 14.3459 5.3359L15.5075 6.49743L16.669 5.3359C17.134 4.87605 17.6216 4.53416 18.1318 4.31023C18.6421 4.08632 19.1989 3.97437 19.8023 3.97437C20.4058 3.97437 20.9669 4.08632 21.4857 4.31023C22.0045 4.53416 22.4938 4.87605 22.9536 5.3359L27.9203 10.3026C28.3801 10.7624 28.7348 11.2786 28.9844 11.8513C29.234 12.4239 29.3587 13.012 29.3587 13.6154C29.3587 14.2188 29.234 14.7756 28.9844 15.2859C28.7348 15.7962 28.3801 16.2812 27.9203 16.741L17.5254 27.1282C17.2485 27.4051 16.9472 27.6068 16.6216 27.7333C16.2959 27.8598 15.9536 27.9231 15.5946 27.9231Z" fill="#436C68"/>
</g>
</svg>
