<svg width="32" height="32" viewBox="0 0 32 32" fill="none" xmlns="http://www.w3.org/2000/svg">
<mask id="mask0_351_2457" style="mask-type:alpha" maskUnits="userSpaceOnUse" x="0" y="0" width="32" height="32">
<rect width="32" height="32" fill="#D9D9D9"/>
</mask>
<g mask="url(#mask0_351_2457)">
<path d="M16.3154 19.5462C17.5462 19.5462 18.6077 19.1487 19.5 18.3539C20.3924 17.559 20.8385 16.5872 20.8385 15.4385C20.8385 14.4624 20.5312 13.6295 19.9167 12.9397C19.3022 12.25 18.5368 11.9051 17.6205 11.9051C16.8496 11.9051 16.1842 12.153 15.6244 12.6487C15.0646 13.1444 14.7846 13.7558 14.7846 14.4829C14.7846 14.7969 14.844 15.1124 14.9628 15.4295C15.0817 15.7466 15.2761 16.0265 15.5462 16.2692C15.7308 16.4436 15.9154 16.5201 16.1 16.4987C16.2847 16.4774 16.4368 16.4043 16.5564 16.2795C16.6761 16.1547 16.7483 16.0098 16.7731 15.8449C16.7979 15.6799 16.7317 15.5214 16.5744 15.3692C16.4787 15.2735 16.3787 15.141 16.2744 14.9718C16.1701 14.8026 16.118 14.6393 16.118 14.4821C16.118 14.1863 16.2479 13.9107 16.5077 13.6551C16.7676 13.3996 17.1385 13.2718 17.6205 13.2718C18.1334 13.2718 18.577 13.4722 18.9513 13.8731C19.3257 14.2739 19.5129 14.8068 19.5129 15.4718C19.5129 16.212 19.2167 16.8551 18.6244 17.4013C18.0321 17.9474 17.2736 18.2205 16.3488 18.2205C15.2872 18.2205 14.374 17.7983 13.609 16.9538C12.8441 16.1094 12.4616 15.0504 12.4616 13.7769C12.4616 13.2484 12.5458 12.7338 12.7141 12.2331C12.8825 11.7324 13.1351 11.2701 13.4718 10.8462C13.5812 10.6838 13.6445 10.509 13.6616 10.3218C13.6787 10.1346 13.6137 9.96752 13.4667 9.8205C13.3197 9.6735 13.1513 9.60556 12.9616 9.61667C12.7718 9.62778 12.6197 9.71197 12.5052 9.86923C12.0607 10.406 11.7146 11.0051 11.4667 11.6664C11.2188 12.3278 11.0949 13.0202 11.0949 13.7436C11.0949 15.3402 11.5975 16.7064 12.6026 17.8423C13.6077 18.9782 14.8454 19.5462 16.3154 19.5462ZM9.33337 22.9846C8.06671 21.8291 7.08337 20.5304 6.38337 19.0885C5.68337 17.6466 5.33337 16.1665 5.33337 14.6481C5.33337 11.6903 6.37041 9.17617 8.44447 7.1057C10.5186 5.03523 13.0371 4 16 4C18.4018 4 20.5723 4.73119 22.5116 6.19357C24.4509 7.65597 25.7086 9.54443 26.2847 11.859L27.6671 17.3313C27.7557 17.6694 27.6924 17.9765 27.477 18.2526C27.2616 18.5286 26.9744 18.6667 26.6154 18.6667H24V23.1795C24 23.7718 23.7891 24.2789 23.3673 24.7006C22.9456 25.1224 22.4385 25.3333 21.8462 25.3333H18.6667V27.3333C18.6667 27.5222 18.6027 27.6806 18.4748 27.8083C18.3468 27.9361 18.1883 28 17.9991 28C17.81 28 17.6518 27.9361 17.5244 27.8083C17.3971 27.6806 17.3334 27.5222 17.3334 27.3333V25.0896C17.3334 24.7718 17.4366 24.5107 17.643 24.3064C17.8494 24.1021 18.1052 24 18.4103 24H21.8462C22.0855 24 22.2821 23.9231 22.4359 23.7692C22.5898 23.6154 22.6667 23.4188 22.6667 23.1795V18.4103C22.6667 18.1051 22.7699 17.8494 22.9763 17.6429C23.1827 17.4365 23.4385 17.3333 23.7436 17.3333H26.2667L25 12.1667C24.4889 10.1274 23.3915 8.47863 21.7077 7.2205C20.024 5.96239 18.1214 5.33333 16 5.33333C13.4223 5.33333 11.2223 6.23582 9.40004 8.0408C7.57782 9.84578 6.66671 12.0407 6.66671 14.6256C6.66671 15.9546 6.93893 17.2171 7.48337 18.4131C8.02782 19.6092 8.80004 20.6724 9.80004 21.6026L10.6667 22.4V27.3333C10.6667 27.5222 10.6027 27.6806 10.4748 27.8083C10.3468 27.9361 10.1883 28 9.99914 28C9.80998 28 9.65174 27.9361 9.52441 27.8083C9.39705 27.6806 9.33337 27.5222 9.33337 27.3333V22.9846Z" fill="#436C68"/>
</g>
</svg>
