<svg width="40" height="40" viewBox="0 0 40 40" fill="none" xmlns="http://www.w3.org/2000/svg">
<mask id="mask0_351_7006" style="mask-type:alpha" maskUnits="userSpaceOnUse" x="0" y="0" width="40" height="40">
<rect width="40" height="40" fill="#D9D9D9"/>
</mask>
<g mask="url(#mask0_351_7006)">
<path d="M21.2498 21.1605V14.5834C21.2498 14.2287 21.13 13.9317 20.8906 13.6926C20.6514 13.4531 20.3545 13.3334 19.9998 13.3334C19.645 13.3334 19.3481 13.4531 19.1089 13.6926C18.8695 13.9317 18.7498 14.2287 18.7498 14.5834V21.5451C18.7498 21.7459 18.7861 21.9372 18.8589 22.1188C18.9314 22.3002 19.0457 22.469 19.2018 22.6251L24.0768 27.5001C24.3074 27.7309 24.5974 27.849 24.9468 27.8542C25.2963 27.8595 25.5917 27.7415 25.8331 27.5001C26.0745 27.2587 26.1952 26.9659 26.1952 26.6217C26.1952 26.2779 26.0745 25.9852 25.8331 25.7438L21.2498 21.1605ZM19.9998 35.8334C18.0339 35.8334 16.1921 35.4616 14.4743 34.718C12.7563 33.9744 11.2584 32.9637 9.98059 31.6859C8.70281 30.4081 7.69211 28.9102 6.9485 27.1922C6.20489 25.4744 5.83309 23.6326 5.83309 21.6667C5.83309 19.7009 6.20489 17.8591 6.9485 16.1413C7.69211 14.4233 8.70281 12.9254 9.98059 11.6476C11.2584 10.3698 12.7563 9.35911 14.4743 8.6155C16.1921 7.87189 18.0339 7.50008 19.9998 7.50008C21.9656 7.50008 23.8074 7.87189 25.5252 8.6155C27.2432 9.35911 28.7411 10.3698 30.0189 11.6476C31.2967 12.9254 32.3074 14.4233 33.051 16.1413C33.7946 17.8591 34.1664 19.7009 34.1664 21.6667C34.1664 23.6326 33.7946 25.4744 33.051 27.1922C32.3074 28.9102 31.2967 30.4081 30.0189 31.6859C28.7411 32.9637 27.2432 33.9744 25.5252 34.718C23.8074 35.4616 21.9656 35.8334 19.9998 35.8334ZM4.02559 12.1347C3.78392 11.8933 3.66309 11.6005 3.66309 11.2563C3.66309 10.9124 3.78392 10.6198 4.02559 10.3784L8.71142 5.69258C8.94225 5.46175 9.23225 5.34369 9.58142 5.33841C9.93086 5.33286 10.2263 5.45091 10.4677 5.69258C10.7091 5.93397 10.8298 6.22661 10.8298 6.5705C10.8298 6.91466 10.7091 7.20744 10.4677 7.44883L5.78184 12.1347C5.551 12.3655 5.261 12.4836 4.91184 12.4888C4.56239 12.4941 4.26698 12.3761 4.02559 12.1347ZM35.9739 12.1347C35.7325 12.3761 35.4399 12.4967 35.096 12.4967C34.7518 12.4967 34.4591 12.3761 34.2177 12.1347L29.5318 7.44883C29.301 7.218 29.1829 6.928 29.1777 6.57883C29.1724 6.22939 29.2904 5.93397 29.5318 5.69258C29.7732 5.45091 30.066 5.33008 30.4102 5.33008C30.7541 5.33008 31.0467 5.45091 31.2881 5.69258L35.9739 10.3784C36.2048 10.6092 36.3228 10.8992 36.3281 11.2484C36.3336 11.5979 36.2156 11.8933 35.9739 12.1347ZM19.9998 33.3334C23.2392 33.3334 25.9935 32.1988 28.2627 29.9297C30.5318 27.6605 31.6664 24.9062 31.6664 21.6667C31.6664 18.4273 30.5318 15.673 28.2627 13.4038C25.9935 11.1347 23.2392 10.0001 19.9998 10.0001C16.7603 10.0001 14.006 11.1347 11.7368 13.4038C9.46767 15.673 8.33309 18.4273 8.33309 21.6667C8.33309 24.9062 9.46767 27.6605 11.7368 29.9297C14.006 32.1988 16.7603 33.3334 19.9998 33.3334Z" fill="white" fillOpacity="0.5"/>
</g>
</svg>
