<svg width="40" height="40" viewBox="0 0 40 40" fill="none" xmlns="http://www.w3.org/2000/svg">
<mask id="mask0_399_900" style="mask-type:alpha" maskUnits="userSpaceOnUse" x="0" y="0" width="40" height="40">
<rect width="40" height="40" fill="#D9D9D9"/>
</mask>
<g mask="url(#mask0_399_900)">
<path d="M28.042 21.3888H8.05587C7.65773 21.3888 7.32671 21.2569 7.06283 20.993C6.79894 20.7291 6.66699 20.3981 6.66699 20C6.66699 19.6018 6.79894 19.2708 7.06283 19.0069C7.32671 18.743 7.65773 18.6111 8.05587 18.6111H28.042L19.0142 9.58328C18.7365 9.30551 18.5999 8.98142 18.6045 8.61104C18.6091 8.24067 18.7503 7.9166 19.0281 7.63883C19.3059 7.37033 19.63 7.23376 20.0003 7.22912C20.3707 7.22448 20.6948 7.36105 20.9725 7.63883L32.3615 19.0277C32.5096 19.1759 32.6138 19.3287 32.674 19.4861C32.7341 19.6435 32.7642 19.8148 32.7642 20C32.7642 20.1851 32.7341 20.3564 32.674 20.5138C32.6138 20.6712 32.5096 20.824 32.3615 20.9722L20.9725 32.3611C20.704 32.6296 20.3823 32.7638 20.0073 32.7638C19.6323 32.7638 19.3059 32.6296 19.0281 32.3611C18.7503 32.0833 18.6115 31.7569 18.6115 31.3819C18.6115 31.0069 18.7503 30.6805 19.0281 30.4027L28.042 21.3888Z" fill="#FBD784"/>
</g>
</svg>
