<svg width="40" height="40" viewBox="0 0 40 40" fill="none" xmlns="http://www.w3.org/2000/svg">
<mask id="mask0_399_905" style="mask-type:alpha" maskUnits="userSpaceOnUse" x="0" y="0" width="40" height="40">
<rect width="40" height="40" transform="matrix(-1 0 0 1 40 0)" fill="#D9D9D9"/>
</mask>
<g mask="url(#mask0_399_905)">
<path d="M11.958 21.3888H31.9441C32.3423 21.3888 32.6733 21.2569 32.9372 20.993C33.2011 20.7291 33.333 20.3981 33.333 20C33.333 19.6018 33.2011 19.2708 32.9372 19.0069C32.6733 18.743 32.3423 18.6111 31.9441 18.6111H11.958L20.9858 9.58328C21.2635 9.30551 21.4001 8.98142 21.3955 8.61104C21.3909 8.24067 21.2497 7.9166 20.9719 7.63883C20.6941 7.37033 20.37 7.23376 19.9997 7.22912C19.6293 7.22448 19.3052 7.36105 19.0275 7.63883L7.63855 19.0277C7.49041 19.1759 7.38624 19.3287 7.32605 19.4861C7.26588 19.6435 7.2358 19.8148 7.2358 20C7.2358 20.1851 7.26588 20.3564 7.32605 20.5138C7.38624 20.6712 7.49041 20.824 7.63855 20.9722L19.0275 32.3611C19.296 32.6296 19.6177 32.7638 19.9927 32.7638C20.3677 32.7638 20.6941 32.6296 20.9719 32.3611C21.2497 32.0833 21.3885 31.7569 21.3885 31.3819C21.3885 31.0069 21.2497 30.6805 20.9719 30.4027L11.958 21.3888Z" fill="#FBD784"/>
</g>
</svg>
