<svg width="27" height="26" viewBox="0 0 27 26" fill="none" xmlns="http://www.w3.org/2000/svg">
<path d="M22.0418 14.3888H2.05562C1.65748 14.3888 1.32647 14.2569 1.06258 13.993C0.798692 13.7291 0.666748 13.3981 0.666748 13C0.666748 12.6018 0.798692 12.2708 1.06258 12.0069C1.32647 11.743 1.65748 11.6111 2.05562 11.6111H22.0418L13.014 2.58328C12.7362 2.30551 12.5996 1.98142 12.6042 1.61104C12.6089 1.24067 12.7501 0.916605 13.0279 0.638827C13.3057 0.370327 13.6297 0.233757 14.0001 0.229118C14.3704 0.224479 14.6945 0.361049 14.9723 0.638827L26.3612 12.0277C26.5093 12.1759 26.6135 12.3287 26.6737 12.4861C26.7339 12.6435 26.764 12.8148 26.764 13C26.764 13.1851 26.7339 13.3564 26.6737 13.5138C26.6135 13.6712 26.5093 13.824 26.3612 13.9722L14.9723 25.3611C14.7038 25.6296 14.382 25.7638 14.007 25.7638C13.632 25.7638 13.3057 25.6296 13.0279 25.3611C12.7501 25.0833 12.6112 24.7569 12.6112 24.3819C12.6112 24.0069 12.7501 23.6805 13.0279 23.4027L22.0418 14.3888Z" fill="#1E2826"/>
</svg>
