<svg width="27" height="26" viewBox="0 0 27 26" fill="none" xmlns="http://www.w3.org/2000/svg">
<path d="M4.95845 14.3888H24.9446C25.3428 14.3888 25.6738 14.2569 25.9377 13.993C26.2016 13.7291 26.3335 13.3981 26.3335 13C26.3335 12.6018 26.2016 12.2708 25.9377 12.0069C25.6738 11.743 25.3428 11.6111 24.9446 11.6111H4.95845L13.9863 2.58328C14.264 2.30551 14.4006 1.98142 14.396 1.61104C14.3914 1.24067 14.2501 0.916605 13.9724 0.638827C13.6946 0.370327 13.3705 0.233757 13.0002 0.229118C12.6298 0.224479 12.3057 0.361049 12.028 0.638827L0.639038 12.0277C0.4909 12.1759 0.386732 12.3287 0.326538 12.4861C0.266371 12.6435 0.236286 12.8148 0.236286 13C0.236286 13.1851 0.266371 13.3564 0.326538 13.5138C0.386732 13.6712 0.4909 13.824 0.639038 13.9722L12.028 25.3611C12.2965 25.6296 12.6182 25.7638 12.9932 25.7638C13.3682 25.7638 13.6946 25.6296 13.9724 25.3611C14.2501 25.0833 14.389 24.7569 14.389 24.3819C14.389 24.0069 14.2501 23.6805 13.9724 23.4027L4.95845 14.3888Z" fill="#1E2826"/>
</svg>
