<svg width="40" height="40" viewBox="0 0 40 40" fill="none" xmlns="http://www.w3.org/2000/svg">
<mask id="mask0_351_6998" style="mask-type:alpha" maskUnits="userSpaceOnUse" x="0" y="0" width="40" height="40">
<rect width="40" height="40" fill="#D9D9D9"/>
</mask>
<g mask="url(#mask0_351_6998)">
<path d="M24.4868 30C23.4162 30 22.5076 29.6267 21.7609 28.88C21.0143 28.1331 20.6409 27.2243 20.6409 26.1538C20.6409 25.0832 21.0143 24.1746 21.7609 23.4279C22.5076 22.6813 23.4162 22.3079 24.4868 22.3079C25.5573 22.3079 26.4661 22.6813 27.213 23.4279C27.9597 24.1746 28.333 25.0832 28.333 26.1538C28.333 27.2243 27.9597 28.1331 27.213 28.88C26.4661 29.6267 25.5573 30 24.4868 30ZM8.84592 35.8334C8.00398 35.8334 7.29134 35.5417 6.70801 34.9584C6.12467 34.375 5.83301 33.6624 5.83301 32.8204V10.5129C5.83301 9.671 6.12467 8.95836 6.70801 8.37503C7.29134 7.79169 8.00398 7.50003 8.84592 7.50003H11.1534V5.25628C11.1534 4.891 11.2758 4.586 11.5205 4.34128C11.7652 4.09683 12.0702 3.97461 12.4355 3.97461C12.8011 3.97461 13.1061 4.09683 13.3505 4.34128C13.5952 4.586 13.7176 4.891 13.7176 5.25628V7.50003H26.3459V5.22461C26.3459 4.86989 26.4655 4.5728 26.7047 4.33336C26.9441 4.09419 27.2412 3.97461 27.5959 3.97461C27.9506 3.97461 28.2476 4.09419 28.4868 4.33336C28.7262 4.5728 28.8459 4.86989 28.8459 5.22461V7.50003H31.1534C31.9954 7.50003 32.708 7.79169 33.2913 8.37503C33.8747 8.95836 34.1663 9.671 34.1663 10.5129V32.8204C34.1663 33.6624 33.8747 34.375 33.2913 34.9584C32.708 35.5417 31.9954 35.8334 31.1534 35.8334H8.84592ZM8.84592 33.3334H31.1534C31.2818 33.3334 31.3993 33.2799 31.5059 33.1729C31.6129 33.0663 31.6663 32.9488 31.6663 32.8204V17.1796H8.33301V32.8204C8.33301 32.9488 8.38648 33.0663 8.49342 33.1729C8.60009 33.2799 8.71759 33.3334 8.84592 33.3334ZM8.33301 14.6796H31.6663V10.5129C31.6663 10.3846 31.6129 10.2671 31.5059 10.1604C31.3993 10.0535 31.2818 10 31.1534 10H8.84592C8.71759 10 8.60009 10.0535 8.49342 10.1604C8.38648 10.2671 8.33301 10.3846 8.33301 10.5129V14.6796Z" fill="white" fillOpacity="0.5"/>
</g>
</svg>
