<svg width="40" height="40" viewBox="0 0 40 40" fill="none" xmlns="http://www.w3.org/2000/svg">
<mask id="mask0_351_7011" style="mask-type:alpha" maskUnits="userSpaceOnUse" x="0" y="0" width="40" height="40">
<rect width="40" height="40" fill="#D9D9D9"/>
</mask>
<g mask="url(#mask0_351_7011)">
<path d="M19.9999 32.5226C23.2605 29.6037 25.7556 26.804 27.4853 24.1234C29.2151 21.4429 30.0799 19.0951 30.0799 17.0801C30.0799 14.0417 29.1146 11.544 27.1841 9.58675C25.2535 7.62953 22.8588 6.65091 19.9999 6.65091C17.141 6.65091 14.7463 7.62953 12.8158 9.58675C10.8852 11.544 9.91992 14.0417 9.91992 17.0801C9.91992 19.0951 10.7848 21.4429 12.5145 24.1234C14.2442 26.804 16.7394 29.6037 19.9999 32.5226ZM19.9999 34.9005C19.6752 34.9005 19.3505 34.8445 19.0258 34.7326C18.7008 34.6204 18.4069 34.4468 18.1441 34.2118C16.6485 32.8334 15.249 31.414 13.9453 29.9534C12.642 28.4931 11.5091 27.0333 10.5466 25.5738C9.58381 24.1144 8.82201 22.6679 8.26117 21.2342C7.70034 19.8004 7.41992 18.4156 7.41992 17.0801C7.41992 13.234 8.66395 10.1202 11.152 7.73883C13.6403 5.35744 16.5896 4.16675 19.9999 4.16675C23.4102 4.16675 26.3595 5.35744 28.8478 7.73883C31.3359 10.1202 32.5799 13.234 32.5799 17.0801C32.5799 18.4156 32.2995 19.7976 31.7387 21.2259C31.1778 22.6545 30.4188 24.1012 29.4616 25.5659C28.5041 27.0306 27.3737 28.4905 26.0703 29.9455C24.767 31.4008 23.3674 32.8174 21.8716 34.1955C21.6127 34.4305 21.3184 34.6068 20.9887 34.7243C20.6592 34.8418 20.3296 34.9005 19.9999 34.9005ZM20.0028 19.7755C20.832 19.7755 21.5409 19.4802 22.1295 18.8897C22.7184 18.2991 23.0128 17.5892 23.0128 16.7601C23.0128 15.9309 22.7176 15.2219 22.127 14.633C21.5364 14.0444 20.8264 13.7501 19.997 13.7501C19.1678 13.7501 18.459 14.0454 17.8703 14.6359C17.2815 15.2265 16.987 15.9365 16.987 16.7659C16.987 17.5951 17.2823 18.304 17.8728 18.8926C18.4634 19.4812 19.1734 19.7755 20.0028 19.7755Z" fill="white" fillOpacity="0.5"/>
</g>
</svg>
