<svg width="40" height="40" viewBox="0 0 40 40" fill="none" xmlns="http://www.w3.org/2000/svg">
<mask id="mask0_351_7017" style="mask-type:alpha" maskUnits="userSpaceOnUse" x="0" y="0" width="40" height="40">
<rect width="40" height="40" fill="#D9D9D9"/>
</mask>
<g mask="url(#mask0_351_7017)">
<path d="M7.17991 32.5C6.3513 32.5 5.64199 32.205 5.05199 31.615C4.46199 31.025 4.16699 30.3157 4.16699 29.4871V24.92C4.16699 24.6464 4.2456 24.4039 4.40283 24.1925C4.55977 23.9808 4.76963 23.8365 5.03241 23.7596C5.76324 23.4199 6.35727 22.9154 6.81449 22.2463C7.27171 21.5768 7.50033 20.8278 7.50033 19.9992C7.50033 19.1706 7.27171 18.4219 6.81449 17.7533C6.35727 17.0844 5.76324 16.5801 5.03241 16.2404C4.76963 16.1635 4.55977 16.0192 4.40283 15.8075C4.2456 15.5961 4.16699 15.3536 4.16699 15.08V10.5129C4.16699 9.68431 4.46199 8.975 5.05199 8.385C5.64199 7.795 6.3513 7.5 7.17991 7.5H32.8207C33.6494 7.5 34.3587 7.795 34.9487 8.385C35.5387 8.975 35.8337 9.68431 35.8337 10.5129V15.08C35.8337 15.3536 35.755 15.5961 35.5978 15.8075C35.4409 16.0192 35.231 16.1635 34.9682 16.2404C34.2374 16.5801 33.6434 17.0846 33.1862 17.7538C32.7289 18.4232 32.5003 19.1722 32.5003 20.0008C32.5003 20.8294 32.7289 21.5781 33.1862 22.2467C33.6434 22.9156 34.2374 23.4199 34.9682 23.7596C35.231 23.8365 35.4409 23.9808 35.5978 24.1925C35.755 24.4039 35.8337 24.6464 35.8337 24.92V29.4871C35.8337 30.3157 35.5387 31.025 34.9487 31.615C34.3587 32.205 33.6494 32.5 32.8207 32.5H7.17991ZM7.17991 30H32.8207C32.9705 30 33.0934 29.9519 33.1895 29.8558C33.2856 29.7597 33.3337 29.6368 33.3337 29.4871V25.75C32.3059 25.1389 31.4934 24.3264 30.8962 23.3125C30.2989 22.2986 30.0003 21.1944 30.0003 20C30.0003 18.8056 30.2989 17.7014 30.8962 16.6875C31.4934 15.6736 32.3059 14.8611 33.3337 14.25V10.5129C33.3337 10.3632 33.2856 10.2403 33.1895 10.1442C33.0934 10.0481 32.9705 10 32.8207 10H7.17991C7.03019 10 6.90727 10.0481 6.81116 10.1442C6.71505 10.2403 6.66699 10.3632 6.66699 10.5129V14.25C7.69477 14.8611 8.50727 15.6736 9.10449 16.6875C9.70171 17.7014 10.0003 18.8056 10.0003 20C10.0003 21.1944 9.70171 22.2986 9.10449 23.3125C8.50727 24.3264 7.69477 25.1389 6.66699 25.75V29.4871C6.66699 29.6368 6.71505 29.7597 6.81116 29.8558C6.90727 29.9519 7.03019 30 7.17991 30ZM20.0007 27.7563C20.3552 27.7563 20.652 27.6364 20.8912 27.3967C21.1306 27.1572 21.2503 26.8603 21.2503 26.5058C21.2503 26.1514 21.1305 25.8546 20.8907 25.6154C20.651 25.376 20.3541 25.2563 19.9999 25.2563C19.6455 25.2563 19.3487 25.3761 19.1095 25.6158C18.87 25.8556 18.7503 26.1526 18.7503 26.5071C18.7503 26.8612 18.8702 27.1581 19.1099 27.3975C19.3496 27.6367 19.6466 27.7563 20.0007 27.7563ZM20.0007 21.25C20.3552 21.25 20.652 21.1301 20.8912 20.8904C21.1306 20.6507 21.2503 20.3537 21.2503 19.9996C21.2503 19.6451 21.1305 19.3483 20.8907 19.1092C20.651 18.8697 20.3541 18.75 19.9999 18.75C19.6455 18.75 19.3487 18.8699 19.1095 19.1096C18.87 19.3493 18.7503 19.6463 18.7503 20.0004C18.7503 20.3549 18.8702 20.6517 19.1099 20.8908C19.3496 21.1303 19.6466 21.25 20.0007 21.25ZM20.0007 14.7437C20.3552 14.7437 20.652 14.6239 20.8912 14.3842C21.1306 14.1444 21.2503 13.8474 21.2503 13.4929C21.2503 13.1388 21.1305 12.8419 20.8907 12.6025C20.651 12.3633 20.3541 12.2437 19.9999 12.2437C19.6455 12.2437 19.3487 12.3636 19.1095 12.6033C18.87 12.8428 18.7503 13.1397 18.7503 13.4942C18.7503 13.8486 18.8702 14.1454 19.1099 14.3846C19.3496 14.624 19.6466 14.7437 20.0007 14.7437Z" fill="white" fillOpacity="0.5"/>
</g>
</svg>
