<svg width="40" height="40" viewBox="0 0 40 40" fill="none" xmlns="http://www.w3.org/2000/svg">
<mask id="mask0_351_2835" style="mask-type:alpha" maskUnits="userSpaceOnUse" x="0" y="0" width="40" height="40">
<rect width="40" height="40" fill="#D9D9D9"/>
</mask>
<g mask="url(#mask0_351_2835)">
<path d="M20 27.1475C21.2393 27.1475 22.3328 26.7767 23.2804 26.0352C24.2281 25.2938 24.8803 24.3526 25.2372 23.2115C25.3141 22.9765 25.2799 22.7724 25.1345 22.5994C24.9891 22.4263 24.7934 22.3397 24.5474 22.3397H15.423C15.188 22.3397 14.9999 22.4245 14.8589 22.594C14.7179 22.7635 14.6752 22.9694 14.7307 23.2115C15.0875 24.3526 15.7451 25.2938 16.7035 26.0352C17.6618 26.7767 18.7607 27.1475 20 27.1475ZM20.0018 35C18.1523 35 16.4193 34.6469 14.8028 33.9407C13.1864 33.2345 11.774 32.2772 10.5657 31.0689C9.35733 29.8606 8.4054 28.4375 7.70988 26.7997C7.01438 25.1619 6.66663 23.4188 6.66663 21.5705V7.69229C6.66663 6.9519 6.93025 6.3181 7.4575 5.79088C7.98472 5.26363 8.61853 5 9.35892 5H30.641C31.3814 5 32.0152 5.26363 32.5424 5.79088C33.0697 6.3181 33.3333 6.9519 33.3333 7.69229V21.5705C33.3333 23.4188 32.9855 25.1619 32.29 26.7997C31.5945 28.4375 30.6426 29.8606 29.4342 31.0689C28.2259 32.2772 26.8141 33.2345 25.1989 33.9407C23.5837 34.6469 21.8513 35 20.0018 35ZM19.9839 33.3333C23.2168 33.3333 25.9722 32.1891 28.25 29.9006C30.5277 27.6122 31.6666 24.8355 31.6666 21.5705V7.69229C31.6666 7.39315 31.5705 7.14743 31.3782 6.95512C31.1859 6.76282 30.9401 6.66667 30.641 6.66667H9.35892C9.05978 6.66667 8.81406 6.76282 8.62175 6.95512C8.42945 7.14743 8.33329 7.39315 8.33329 7.69229V21.5705C8.33329 24.8355 9.46683 27.6122 11.7339 29.9006C14.001 32.1891 16.751 33.3333 19.9839 33.3333ZM15.2884 12.7243C14.688 12.7243 14.1511 12.9038 13.6778 13.2628C13.2046 13.6218 12.8879 14.0802 12.7278 14.6381C12.6678 14.8473 12.7052 15.0347 12.84 15.2003C12.9749 15.3659 13.1659 15.4487 13.4131 15.4487H17.1885C17.4132 15.4487 17.5982 15.3646 17.7435 15.1963C17.8888 15.028 17.9337 14.843 17.8782 14.641C17.6987 14.0812 17.3723 13.6218 16.899 13.2628C16.4257 12.9038 15.8888 12.7243 15.2884 12.7243ZM24.6854 12.7243C24.081 12.7243 23.5488 12.9045 23.0889 13.2648C22.629 13.6251 22.3093 14.0754 22.1298 14.6159C22.0624 14.8185 22.0962 15.0027 22.231 15.1683C22.3659 15.3339 22.5569 15.4167 22.8041 15.4167H26.5795C26.8043 15.4167 26.9839 15.3325 27.1185 15.1643C27.2532 14.996 27.2927 14.8109 27.2371 14.609C27.0581 14.0705 26.7391 13.6218 26.2802 13.2628C25.8213 12.9038 25.2897 12.7243 24.6854 12.7243Z" fill="white"/>
</g>
</svg>
