<svg width="40" height="40" viewBox="0 0 40 40" fill="none" xmlns="http://www.w3.org/2000/svg">
<mask id="mask0_351_2815" style="mask-type:alpha" maskUnits="userSpaceOnUse" x="0" y="0" width="40" height="40">
<rect width="40" height="40" fill="#D9D9D9"/>
</mask>
<g mask="url(#mask0_351_2815)">
<path d="M10.3269 29.141C11.7436 28.1218 13.2468 27.3157 14.8365 26.7227C16.4263 26.1298 18.1474 25.8333 20 25.8333C21.8526 25.8333 23.5737 26.1298 25.1635 26.7227C26.7532 27.3157 28.2564 28.1218 29.6731 29.141C30.7735 28.0022 31.6587 26.6571 32.3285 25.1057C32.9984 23.5545 33.3333 21.8526 33.3333 20C33.3333 16.3056 32.0347 13.1597 29.4375 10.5625C26.8403 7.96528 23.6944 6.66667 20 6.66667C16.3056 6.66667 13.1597 7.96528 10.5625 10.5625C7.96528 13.1597 6.66667 16.3056 6.66667 20C6.66667 21.8526 7.0016 23.5545 7.67146 25.1057C8.34135 26.6571 9.2265 28.0022 10.3269 29.141ZM20.001 20.8333C18.5965 20.8333 17.4118 20.3513 16.4471 19.3872C15.4824 18.4231 15 17.2388 15 15.8343C15 14.4298 15.482 13.2452 16.4461 12.2805C17.4102 11.3157 18.5945 10.8333 19.999 10.8333C21.4035 10.8333 22.5882 11.3154 23.5529 12.2795C24.5176 13.2436 25 14.4279 25 15.8324C25 17.2369 24.5179 18.4215 23.5538 19.3862C22.5898 20.351 21.4055 20.8333 20.001 20.8333ZM20 35C17.9081 35 15.9498 34.6106 14.125 33.8318C12.3002 33.0529 10.7126 31.9882 9.36217 30.6378C8.01175 29.2874 6.94711 27.6998 6.16825 25.875C5.38942 24.0502 5 22.0919 5 20C5 17.9081 5.38942 15.9498 6.16825 14.125C6.94711 12.3002 8.01175 10.7126 9.36217 9.36217C10.7126 8.01175 12.3002 6.94711 14.125 6.16825C15.9498 5.38942 17.9081 5 20 5C22.0919 5 24.0502 5.38942 25.875 6.16825C27.6998 6.94711 29.2874 8.01175 30.6378 9.36217C31.9882 10.7126 33.0529 12.3002 33.8317 14.125C34.6106 15.9498 35 17.9081 35 20C35 22.0919 34.6106 24.0502 33.8317 25.875C33.0529 27.6998 31.9882 29.2874 30.6378 30.6378C29.2874 31.9882 27.6998 33.0529 25.875 33.8318C24.0502 34.6106 22.0919 35 20 35ZM20 33.3333C21.5363 33.3333 23.0481 33.0646 24.5352 32.5272C26.0224 31.9899 27.3077 31.2543 28.391 30.3205C27.3077 29.4509 26.0545 28.7634 24.6314 28.258C23.2083 27.7527 21.6645 27.5 20 27.5C18.3355 27.5 16.7863 27.7473 15.3526 28.242C13.9188 28.7366 12.6709 29.4295 11.609 30.3205C12.6923 31.2543 13.9776 31.9899 15.4648 32.5272C16.9519 33.0646 18.4637 33.3333 20 33.3333ZM20 19.1667C20.9359 19.1667 21.7254 18.8451 22.3686 18.2019C23.0117 17.5588 23.3333 16.7692 23.3333 15.8333C23.3333 14.8974 23.0117 14.1079 22.3686 13.4647C21.7254 12.8216 20.9359 12.5 20 12.5C19.0641 12.5 18.2746 12.8216 17.6314 13.4647C16.9882 14.1079 16.6667 14.8974 16.6667 15.8333C16.6667 16.7692 16.9882 17.5588 17.6314 18.2019C18.2746 18.8451 19.0641 19.1667 20 19.1667Z" fill="white"/>
</g>
</svg>
