<svg width="40" height="40" viewBox="0 0 40 40" fill="none" xmlns="http://www.w3.org/2000/svg">
<mask id="mask0_351_2829" style="mask-type:alpha" maskUnits="userSpaceOnUse" x="0" y="0" width="40" height="40">
<rect width="40" height="40" fill="#D9D9D9"/>
</mask>
<g mask="url(#mask0_351_2829)">
<path d="M10.8333 27.4998V15.8331C10.8333 15.597 10.9133 15.3991 11.0733 15.2394C11.2333 15.0797 11.4315 14.9998 11.6679 14.9998C11.9043 14.9998 12.102 15.0797 12.2612 15.2394C12.4204 15.3991 12.5 15.597 12.5 15.8331V27.4998C12.5 27.7359 12.42 27.9338 12.26 28.0935C12.1 28.2533 11.9018 28.3331 11.6654 28.3331C11.429 28.3331 11.2312 28.2533 11.072 28.0935C10.9129 27.9338 10.8333 27.7359 10.8333 27.4998ZM19.1666 27.4998V15.8331C19.1666 15.597 19.2466 15.3991 19.4066 15.2394C19.5666 15.0797 19.7648 14.9998 20.0012 14.9998C20.2376 14.9998 20.4354 15.0797 20.5945 15.2394C20.7537 15.3991 20.8333 15.597 20.8333 15.8331V27.4998C20.8333 27.7359 20.7533 27.9338 20.5933 28.0935C20.4333 28.2533 20.2351 28.3331 19.9987 28.3331C19.7623 28.3331 19.5645 28.2533 19.4054 28.0935C19.2462 27.9338 19.1666 27.7359 19.1666 27.4998ZM6.73079 33.3331C6.49468 33.3331 6.29677 33.2531 6.13704 33.0931C5.97732 32.9331 5.89746 32.7349 5.89746 32.4986C5.89746 32.2622 5.97732 32.0644 6.13704 31.9052C6.29677 31.746 6.49468 31.6665 6.73079 31.6665H33.2691C33.5052 31.6665 33.7032 31.7465 33.8629 31.9065C34.0226 32.0665 34.1025 32.2647 34.1025 32.501C34.1025 32.7374 34.0226 32.9352 33.8629 33.0944C33.7032 33.2535 33.5052 33.3331 33.2691 33.3331H6.73079ZM27.5 27.4998V15.8331C27.5 15.597 27.58 15.3991 27.74 15.2394C27.9 15.0797 28.0982 14.9998 28.3345 14.9998C28.5709 14.9998 28.7687 15.0797 28.9279 15.2394C29.087 15.3991 29.1666 15.597 29.1666 15.8331V27.4998C29.1666 27.7359 29.0866 27.9338 28.9266 28.0935C28.7666 28.2533 28.5684 28.3331 28.332 28.3331C28.0957 28.3331 27.8979 28.2533 27.7387 28.0935C27.5795 27.9338 27.5 27.7359 27.5 27.4998ZM33.3975 11.6665H6.53204C6.35566 11.6665 6.20579 11.6052 6.08246 11.4827C5.95913 11.3599 5.89746 11.211 5.89746 11.036V10.6506C5.89746 10.5223 5.92982 10.4122 5.99454 10.3202C6.05899 10.2283 6.14413 10.1535 6.24996 10.096L18.8525 4.08313C19.2125 3.90369 19.5936 3.81396 19.9958 3.81396C20.398 3.81396 20.7819 3.90369 21.1475 4.08313L33.6987 10.0544C33.812 10.1291 33.9076 10.2199 33.9854 10.3269C34.0634 10.4335 34.1025 10.5549 34.1025 10.6911V10.9694C34.1025 11.1799 34.0389 11.3487 33.9116 11.4756C33.7847 11.6029 33.6133 11.6665 33.3975 11.6665ZM10.3012 9.9998H29.6987L20.4487 5.60897C20.299 5.5448 20.1494 5.51272 20 5.51272C19.8505 5.51272 19.7009 5.5448 19.5512 5.60897L10.3012 9.9998Z" fill="white"/>
</g>
</svg>
