<svg width="40" height="40" viewBox="0 0 40 40" fill="none" xmlns="http://www.w3.org/2000/svg">
<mask id="mask0_351_2809" style="mask-type:alpha" maskUnits="userSpaceOnUse" x="0" y="0" width="40" height="40">
<rect width="40" height="40" fill="#D9D9D9"/>
</mask>
<g mask="url(#mask0_351_2809)">
<path d="M15.2885 36.157C14.0107 36.157 12.8916 35.7703 11.9311 34.9967C10.9706 34.2232 10.3087 33.2318 9.9455 32.0224C9.60789 32.5844 9.14154 33.0144 8.54646 33.3125C7.95138 33.6105 7.32478 33.7596 6.66667 33.7596C5.50639 33.7596 4.52187 33.3536 3.71312 32.5416C2.90437 31.7296 2.5 30.7467 2.5 29.5929C2.5 28.5694 2.85683 27.6372 3.5705 26.7964C4.28417 25.9556 5.18481 25.5299 6.27242 25.5192C5.71258 25.0064 5.26975 24.3894 4.94392 23.6682C4.61806 22.9471 4.45512 22.1965 4.45512 21.4166C4.45512 20.688 4.61217 19.9861 4.92625 19.3109C5.24036 18.6356 5.69015 18.0545 6.27563 17.5673C6.43374 17.3856 6.62124 17.2825 6.83813 17.258C7.05501 17.2334 7.25426 17.3002 7.43587 17.4583C7.61751 17.6164 7.71688 17.8039 7.73396 18.0208C7.75107 18.2377 7.68056 18.4369 7.52242 18.6185C7.06944 18.9903 6.72971 19.4209 6.50321 19.9102C6.27671 20.3995 6.16346 20.9156 6.16346 21.4583C6.16346 23.1314 6.76549 24.2243 7.96954 24.7371C9.1736 25.25 10.438 25.6356 11.7628 25.8942C11.8782 25.9284 11.9743 25.9743 12.0513 26.032C12.1282 26.0897 12.2009 26.1623 12.2692 26.25C12.3376 26.3376 12.3681 26.4321 12.3606 26.5336C12.3531 26.6351 12.3291 26.7435 12.2885 26.8589C11.9893 27.673 11.7617 28.3707 11.6058 28.9519C11.4498 29.5331 11.3718 30.0705 11.3718 30.5641C11.3718 31.6111 11.7505 32.5219 12.508 33.2964C13.2655 34.071 14.1816 34.4583 15.2564 34.4583C16.3376 34.4583 17.2404 34.086 17.9647 33.3413C18.6891 32.5966 19.2933 31.6853 19.7773 30.6073C20.2612 29.5293 20.6458 28.3888 20.9311 27.1859C21.2163 25.9829 21.453 24.923 21.641 24.0064C21.703 23.7265 21.8323 23.508 22.0288 23.3509C22.2254 23.1939 22.4391 23.1527 22.6699 23.2275C22.9284 23.3023 23.1117 23.4572 23.2195 23.6922C23.3275 23.9273 23.3472 24.1848 23.2788 24.4647C23.0502 25.5929 22.7682 26.8365 22.4327 28.1954C22.0972 29.5544 21.6352 30.8237 21.0465 32.0032C20.4578 33.1827 19.7046 34.1698 18.7869 34.9647C17.8691 35.7596 16.703 36.157 15.2885 36.157ZM24.625 36.189C24.3814 36.1676 24.1747 36.0774 24.0048 35.9182C23.8349 35.759 23.7607 35.5608 23.782 35.3236C23.8034 35.0865 23.899 34.8829 24.0689 34.713C24.2388 34.5432 24.4423 34.4689 24.6795 34.4903C25.7607 34.4903 26.6854 34.103 27.4535 33.3284C28.2217 32.5539 28.6058 31.6292 28.6058 30.5544C28.6058 30.0394 28.5208 29.4919 28.351 28.9118C28.1811 28.3316 27.9434 27.6174 27.6378 26.7692C27.6036 26.6815 27.5865 26.5955 27.5865 26.5111C27.5865 26.4267 27.6207 26.3439 27.6891 26.2627C27.7575 26.1815 27.8237 26.119 27.8878 26.0752C27.9519 26.0314 28.031 25.9924 28.125 25.9582C29.4776 25.6997 30.7692 25.3049 32 24.774C33.2308 24.243 33.8462 23.1345 33.8462 21.4486C33.8462 20.1025 33.3723 19.1046 32.4247 18.455C31.477 17.8055 30.4103 17.4807 29.2244 17.4807C28.2094 17.4807 27.0363 17.642 25.7051 17.9647C24.3739 18.2873 22.8568 18.7232 21.1538 19.2724C20.8739 19.3471 20.6132 19.3477 20.3718 19.274C20.1303 19.2002 19.9722 19.0341 19.8974 18.7755C19.8226 18.517 19.8654 18.2809 20.0256 18.0672C20.1859 17.8535 20.3953 17.7093 20.6538 17.6345C22.3397 17.1004 23.8643 16.6527 25.2276 16.2916C26.5908 15.9305 27.8622 15.75 29.0417 15.75C30.7233 15.75 32.2222 16.2446 33.5385 17.2339C34.8547 18.2232 35.5128 19.6282 35.5128 21.4487C35.5128 22.2286 35.3552 22.9631 35.0401 23.6522C34.7249 24.3413 34.2874 24.9636 33.7276 25.5192C34.8152 25.5512 35.7158 25.977 36.4295 26.7964C37.1432 27.6159 37.5 28.548 37.5 29.5929C37.5 30.7254 37.0956 31.703 36.2869 32.5256C35.4781 33.3483 34.4936 33.7596 33.3333 33.7596C32.6752 33.7596 32.0486 33.6105 31.4535 33.3125C30.8585 33.0144 30.3921 32.5844 30.0545 32.0224C29.6912 33.2254 29.0203 34.219 28.0417 35.0032C27.063 35.7873 25.9241 36.1826 24.625 36.189ZM15.984 24.4647C13.9519 22.6271 12.3077 20.9647 11.0513 19.4775C9.79487 17.9903 9.16667 16.3728 9.16667 14.625C9.16667 13.0544 9.7046 11.7312 10.7805 10.6554C11.8563 9.57955 13.1795 9.04162 14.75 9.04162C15.0534 9.04162 15.3269 9.05924 15.5705 9.09449C15.8141 9.12974 16.0449 9.17942 16.2628 9.24354C16.1303 8.98712 16.0256 8.72537 15.9487 8.45828C15.8718 8.19117 15.8333 7.90484 15.8333 7.59928C15.8333 6.44545 16.2393 5.46255 17.0513 4.65058C17.8632 3.8386 18.8461 3.43262 20 3.43262C21.1539 3.43262 22.1368 3.8386 22.9487 4.65058C23.7607 5.46255 24.1667 6.44545 24.1667 7.59928C24.1667 7.90484 24.1282 8.18956 24.0513 8.45345C23.9744 8.71734 23.8697 8.97749 23.7372 9.23391C23.9359 9.1698 24.1667 9.12173 24.4295 9.0897C24.6923 9.05765 24.9658 9.04162 25.25 9.04162C26.1859 9.04162 27.039 9.25956 27.8093 9.69545C28.5796 10.1313 29.2105 10.7072 29.7019 11.423C29.8558 11.5939 29.9231 11.7895 29.9038 12.0095C29.8846 12.2296 29.7895 12.4166 29.6186 12.5705C29.4476 12.7243 29.2521 12.7916 29.032 12.7724C28.812 12.7531 28.625 12.6581 28.4711 12.4871C28.1293 11.9444 27.6827 11.5122 27.1314 11.1907C26.5801 10.8691 25.953 10.7083 25.25 10.7083C24.2543 10.7083 23.4535 10.9636 22.8477 11.4743C22.242 11.985 21.469 12.7799 20.5288 13.8589C20.4541 13.9401 20.3654 14.001 20.2628 14.0416C20.1602 14.0822 20.062 14.1025 19.968 14.1025C19.8739 14.1025 19.7794 14.0822 19.6843 14.0416C19.5892 14.001 19.5043 13.9401 19.4295 13.8589C18.4829 12.7307 17.7046 11.9236 17.0945 11.4375C16.4845 10.9513 15.703 10.7083 14.75 10.7083C13.6261 10.7083 12.6923 11.0801 11.9487 11.8237C11.2051 12.5672 10.8333 13.501 10.8333 14.625C10.8333 15.8557 11.3873 17.1511 12.4952 18.5112C13.6031 19.8712 15.1517 21.4626 17.141 23.2852C17.359 23.469 17.5027 23.6917 17.5721 23.9535C17.6416 24.2152 17.5844 24.438 17.4006 24.6217C17.2105 24.8119 16.9813 24.8808 16.7131 24.8285C16.445 24.7761 16.2019 24.6549 15.984 24.4647ZM6.66667 32.0929C7.35256 32.0929 7.94069 31.8477 8.43108 31.3573C8.92147 30.8669 9.16667 30.2788 9.16667 29.5929C9.16667 28.907 8.92147 28.3189 8.43108 27.8285C7.94069 27.3381 7.35256 27.0929 6.66667 27.0929C5.98075 27.0929 5.39261 27.3381 4.90225 27.8285C4.41186 28.3189 4.16667 28.907 4.16667 29.5929C4.16667 30.2788 4.41186 30.8669 4.90225 31.3573C5.39261 31.8477 5.98075 32.0929 6.66667 32.0929ZM20 10.0993C20.6859 10.0993 21.274 9.85409 21.7644 9.3637C22.2548 8.87334 22.5 8.2852 22.5 7.59928C22.5 6.91339 22.2548 6.32526 21.7644 5.83487C21.274 5.34448 20.6859 5.09928 20 5.09928C19.3141 5.09928 18.726 5.34448 18.2356 5.83487C17.7452 6.32526 17.5 6.91339 17.5 7.59928C17.5 8.2852 17.7452 8.87334 18.2356 9.3637C18.726 9.85409 19.3141 10.0993 20 10.0993ZM33.375 32.0929C34.0609 32.0929 34.6421 31.8477 35.1186 31.3573C35.5951 30.8669 35.8333 30.2788 35.8333 29.5929C35.8333 28.907 35.5881 28.3119 35.0978 27.8077C34.6074 27.3034 34.0192 27.0512 33.3333 27.0512C32.6474 27.0512 32.0593 27.2964 31.5689 27.7868C31.0785 28.2772 30.8333 28.8654 30.8333 29.5512C30.8333 30.2371 31.0855 30.8322 31.5897 31.3365C32.094 31.8408 32.6891 32.0929 33.375 32.0929Z" fill="white"/>
</g>
</svg>
