<svg width="40" height="40" viewBox="0 0 40 40" fill="none" xmlns="http://www.w3.org/2000/svg">
<mask id="mask0_351_2803" style="mask-type:alpha" maskUnits="userSpaceOnUse" x="0" y="0" width="40" height="40">
<rect width="40" height="40" fill="#D9D9D9"/>
</mask>
<g mask="url(#mask0_351_2803)">
<path d="M19.5031 33.237C19.7211 33.237 19.9443 33.1878 20.173 33.0896C20.4016 32.9913 20.5864 32.8716 20.7274 32.7306L33.7211 19.737C34.1399 19.3182 34.4631 18.8898 34.6906 18.4517C34.9182 18.0137 35.0319 17.5329 35.0319 17.0094C35.0319 16.4795 34.9182 15.9651 34.6906 15.4661C34.4631 14.9672 34.1399 14.5116 33.7211 14.0992L27.4711 7.84919C27.0586 7.43038 26.635 7.12322 26.2002 6.92769C25.7654 6.73219 25.283 6.63444 24.7531 6.63444C24.2296 6.63444 23.7435 6.73219 23.2948 6.92769C22.8461 7.12322 22.423 7.43038 22.0255 7.84919L20.5736 9.30111L23.6569 12.394C23.9882 12.7188 24.235 13.0885 24.3974 13.503C24.5597 13.9176 24.6409 14.3385 24.6409 14.7659C24.6409 15.6334 24.3573 16.3508 23.79 16.9181C23.2227 17.4854 22.5053 17.7691 21.6377 17.7691C21.2104 17.7691 20.7932 17.7039 20.3861 17.5735C19.9791 17.4432 19.6131 17.2156 19.2884 16.8909L16.8364 14.4485C16.6441 14.2562 16.3984 14.1601 16.0993 14.1601C15.8001 14.1601 15.5544 14.2562 15.3621 14.4485L8.90373 20.9069C8.73493 21.0757 8.60833 21.2674 8.52394 21.4822C8.43952 21.6969 8.39732 21.9133 8.39732 22.1312C8.39732 22.5244 8.52339 22.8486 8.77552 23.104C9.02766 23.3593 9.35032 23.487 9.74348 23.487C9.96143 23.487 10.1847 23.4378 10.4134 23.3396C10.642 23.2413 10.8268 23.1216 10.9679 22.9806L15.6602 18.2883C15.8161 18.1323 16.0058 18.0474 16.2291 18.0335C16.4523 18.0196 16.6559 18.1045 16.8397 18.2883C17.017 18.4656 17.1056 18.6622 17.1056 18.878C17.1056 19.0938 17.017 19.2904 16.8397 19.4678L12.1569 24.1601C11.9881 24.3289 11.8615 24.5206 11.7771 24.7354C11.6927 24.9501 11.6505 25.1665 11.6505 25.3844C11.6505 25.7562 11.7819 26.0735 12.0448 26.3364C12.3076 26.5992 12.6249 26.7306 12.9967 26.7306C13.2146 26.7306 13.4379 26.6814 13.6666 26.5831C13.8952 26.4848 14.08 26.3652 14.2211 26.2242L19.298 21.1569C19.454 21.0009 19.6436 20.916 19.8669 20.9021C20.0902 20.8882 20.2937 20.9731 20.4774 21.1569C20.6548 21.3342 20.7435 21.5308 20.7435 21.7466C20.7435 21.9624 20.6548 22.159 20.4774 22.3364L15.4102 27.4133C15.2627 27.5543 15.1415 27.7391 15.0464 27.9678C14.9513 28.1964 14.9037 28.4197 14.9037 28.6377C14.9037 29.0094 15.0352 29.3267 15.298 29.5896C15.5608 29.8524 15.8781 29.9838 16.2499 29.9838C16.4678 29.9838 16.6842 29.9416 16.8989 29.8572C17.1137 29.7728 17.3055 29.6462 17.4743 29.4774L22.5512 24.4101C22.7072 24.2541 22.8968 24.1692 23.1201 24.1553C23.3434 24.1414 23.5469 24.2263 23.7307 24.4101C23.908 24.5874 23.9967 24.784 23.9967 24.9998C23.9967 25.2156 23.908 25.4122 23.7307 25.5896L18.6537 30.6665C18.4849 30.8353 18.3583 31.0377 18.2739 31.2739C18.1896 31.51 18.1474 31.7263 18.1474 31.9229C18.1474 32.3161 18.2857 32.6334 18.5624 32.8748C18.8391 33.1163 19.1527 33.237 19.5031 33.237ZM19.4935 34.9037C18.6367 34.9037 17.9032 34.5901 17.2932 33.963C16.6831 33.3358 16.4155 32.5618 16.4903 31.6409C15.5458 31.6515 14.7595 31.3695 14.1313 30.7947C13.5031 30.2199 13.205 29.4176 13.2371 28.3877C12.2071 28.3983 11.3957 28.104 10.8028 27.5047C10.2098 26.9053 9.94007 26.1152 9.99348 25.1344C9.06612 25.1451 8.29048 24.8844 7.66657 24.3524C7.04262 23.8203 6.73065 23.08 6.73065 22.1312C6.73065 21.7039 6.81345 21.276 6.97907 20.8476C7.14465 20.4191 7.38984 20.0426 7.71465 19.7178L14.205 13.2274C14.7157 12.7167 15.3455 12.4614 16.0944 12.4614C16.8434 12.4614 17.4732 12.7167 17.9839 13.2274L20.4037 15.6472C20.5448 15.7947 20.7189 15.9159 20.9262 16.011C21.1334 16.1061 21.3674 16.1536 21.6281 16.1536C21.9849 16.1536 22.3001 16.0292 22.5736 15.7803C22.8471 15.5313 22.9839 15.2071 22.9839 14.8075C22.9839 14.5468 22.9363 14.3128 22.8412 14.1056C22.7462 13.8983 22.6249 13.7242 22.4775 13.5831L16.7435 7.84919C16.3311 7.43038 15.9022 7.12322 15.4567 6.92769C15.0111 6.73219 14.5234 6.63444 13.9935 6.63444C13.47 6.63444 12.9946 6.73219 12.5672 6.92769C12.1399 7.12322 11.7168 7.43038 11.298 7.84919L6.22427 12.9325C5.86741 13.2894 5.57894 13.7146 5.35886 14.2081C5.13877 14.7017 5.02233 15.2113 5.00952 15.737C4.99669 16.1131 5.02873 16.4747 5.10565 16.8219C5.18259 17.1692 5.3044 17.4956 5.47107 17.8011L4.20823 19.0639C3.92832 18.6174 3.70929 18.1029 3.55115 17.5206C3.39304 16.9384 3.3204 16.3438 3.33323 15.737C3.34604 14.9806 3.49775 14.2557 3.78836 13.5623C4.07894 12.8689 4.49454 12.2519 5.03515 11.7114L10.0768 6.66969C10.658 6.09488 11.2729 5.66752 11.9214 5.38761C12.5699 5.10772 13.2713 4.96777 14.0255 4.96777C14.7798 4.96777 15.4759 5.10772 16.1137 5.38761C16.7515 5.66752 17.3578 6.09488 17.9326 6.66969L19.3845 8.12161L20.8364 6.66969C21.4176 6.09488 22.0271 5.66752 22.6649 5.38761C23.3028 5.10772 23.9988 4.96777 24.7531 4.96777C25.5074 4.96777 26.2088 5.10772 26.8573 5.38761C27.5058 5.66752 28.1174 6.09488 28.6922 6.66969L34.9006 12.878C35.4753 13.4528 35.9187 14.0981 36.2307 14.8139C36.5426 15.5297 36.6986 16.2648 36.6986 17.0191C36.6986 17.7733 36.5426 18.4694 36.2307 19.1072C35.9187 19.745 35.4753 20.3513 34.9006 20.9261L21.9069 33.9101C21.5608 34.2562 21.1842 34.5084 20.7772 34.6665C20.3701 34.8246 19.9422 34.9037 19.4935 34.9037Z" fill="white"/>
</g>
</svg>
