<svg width="32" height="32" viewBox="0 0 32 32" fill="none" xmlns="http://www.w3.org/2000/svg">
<mask id="mask0_147_1549" style="mask-type:alpha" maskUnits="userSpaceOnUse" x="0" y="0" width="32" height="32">
<rect width="32" height="32" fill="#D9D9D9"/>
</mask>
<g mask="url(#mask0_147_1549)">
<path d="M12.6924 20.8203C10.4155 20.8203 8.48727 20.0306 6.90781 18.4511C5.32832 16.8716 4.53857 14.9434 4.53857 12.6665C4.53857 10.3896 5.32832 8.46138 6.90781 6.8819C8.48727 5.30243 10.4155 4.5127 12.6924 4.5127C14.9693 4.5127 16.8975 5.30243 18.477 6.8819C20.0565 8.46138 20.8462 10.3896 20.8462 12.6665C20.8462 13.6186 20.6864 14.528 20.3667 15.3947C20.047 16.2614 19.6205 17.0152 19.0872 17.6562L26.759 25.328C26.9436 25.5127 27.0381 25.7447 27.0423 26.0242C27.0466 26.3037 26.9522 26.54 26.759 26.7331C26.5659 26.9263 26.3317 27.0229 26.0565 27.0229C25.7813 27.0229 25.5471 26.9263 25.3539 26.7331L17.6821 19.0613C17.0154 19.6118 16.2488 20.0425 15.3821 20.3536C14.5154 20.6647 13.6189 20.8203 12.6924 20.8203ZM12.6924 18.8204C14.4103 18.8204 15.8655 18.2242 17.0578 17.0319C18.2501 15.8396 18.8462 14.3845 18.8462 12.6665C18.8462 10.9485 18.2501 9.49341 17.0578 8.3011C15.8655 7.10879 14.4103 6.51263 12.6924 6.51263C10.9744 6.51263 9.51929 7.10879 8.32697 8.3011C7.13469 9.49341 6.53854 10.9485 6.53854 12.6665C6.53854 14.3845 7.13469 15.8396 8.32697 17.0319C9.51929 18.2242 10.9744 18.8204 12.6924 18.8204Z" fill="white" fillOpacity="0.5"/>
</g>
</svg>
