<svg width="40" height="40" viewBox="0 0 40 40" fill="none" xmlns="http://www.w3.org/2000/svg">
<mask id="mask0_351_2822" style="mask-type:alpha" maskUnits="userSpaceOnUse" x="0" y="0" width="40" height="40">
<rect width="40" height="40" fill="#D9D9D9"/>
</mask>
<g mask="url(#mask0_351_2822)">
<path d="M20.3942 24.4327C21.9327 24.4327 23.2596 23.9359 24.375 22.9423C25.4903 21.9487 26.048 20.734 26.048 19.2981C26.048 18.078 25.664 17.0369 24.8958 16.1747C24.1276 15.3125 23.1709 14.8814 22.0256 14.8814C21.0619 14.8814 20.2302 15.1912 19.5304 15.8109C18.8306 16.4305 18.4807 17.1948 18.4807 18.1036C18.4807 18.4961 18.555 18.8905 18.7035 19.2869C18.852 19.6832 19.0951 20.0331 19.4327 20.3365C19.6634 20.5545 19.8942 20.6501 20.125 20.6234C20.3557 20.5967 20.5459 20.5053 20.6955 20.3494C20.845 20.1934 20.9353 20.0123 20.9663 19.8061C20.9973 19.5999 20.9145 19.4017 20.7179 19.2115C20.5983 19.0919 20.4733 18.9263 20.3429 18.7148C20.2126 18.5032 20.1474 18.2991 20.1474 18.1026C20.1474 17.7329 20.3098 17.3884 20.6346 17.0689C20.9594 16.7495 21.423 16.5897 22.0256 16.5897C22.6666 16.5897 23.2211 16.8403 23.689 17.3413C24.157 17.8424 24.391 18.5086 24.391 19.3398C24.391 20.265 24.0208 21.0689 23.2804 21.7516C22.54 22.4343 21.5918 22.7756 20.4359 22.7756C19.1089 22.7756 17.9674 22.2478 17.0112 21.1923C16.055 20.1367 15.5769 18.813 15.5769 17.2212C15.5769 16.5605 15.6821 15.9172 15.8926 15.2914C16.1031 14.6655 16.4188 14.0876 16.8397 13.5577C16.9765 13.3547 17.0555 13.1362 17.0769 12.9022C17.0982 12.6683 17.017 12.4594 16.8333 12.2756C16.6495 12.0919 16.4391 12.0069 16.2019 12.0208C15.9647 12.0347 15.7745 12.14 15.6314 12.3365C15.0758 13.0075 14.6431 13.7563 14.3333 14.583C14.0235 15.4098 13.8685 16.2752 13.8685 17.1795C13.8685 19.1752 14.4968 20.883 15.7532 22.3029C17.0096 23.7228 18.5566 24.4327 20.3942 24.4327ZM11.6666 28.7308C10.0833 27.2863 8.85413 25.6629 7.97913 23.8606C7.10413 22.0582 6.66663 20.2081 6.66663 18.3102C6.66663 14.6129 7.96292 11.4702 10.5555 8.88213C13.1481 6.29404 16.2963 5 20 5C23.0021 5 25.7152 5.91399 28.1394 7.74196C30.5635 9.56996 32.1357 11.9305 32.8558 14.8237L34.5838 21.6641C34.6946 22.0868 34.6153 22.4706 34.3461 22.8157C34.0769 23.1608 33.7179 23.3333 33.2692 23.3333H30V28.9744C30 29.7148 29.7363 30.3486 29.2091 30.8758C28.6819 31.403 28.0481 31.6667 27.3077 31.6667H23.3333V34.1667C23.3333 34.4028 23.2533 34.6007 23.0934 34.7604C22.9335 34.9201 22.7353 35 22.4988 35C22.2624 35 22.0646 34.9201 21.9054 34.7604C21.7462 34.6007 21.6666 34.4028 21.6666 34.1667V31.362C21.6666 30.9647 21.7956 30.6384 22.0536 30.383C22.3117 30.1277 22.6314 30 23.0128 30H27.3077C27.6068 30 27.8525 29.9038 28.0448 29.7115C28.2371 29.5192 28.3333 29.2735 28.3333 28.9744V23.0128C28.3333 22.6314 28.4623 22.3117 28.7203 22.0537C28.9783 21.7957 29.298 21.6667 29.6795 21.6667H32.8333L31.25 15.2083C30.6111 12.6592 29.2393 10.5983 27.1346 9.02562C25.0299 7.45299 22.6517 6.66667 20 6.66667C16.7777 6.66667 14.0277 7.79478 11.75 10.051C9.47218 12.3072 8.33329 15.0509 8.33329 18.282C8.33329 19.9432 8.67357 21.5214 9.35413 23.0164C10.0347 24.5115 11 25.8405 12.25 27.0033L13.3333 28V34.1667C13.3333 34.4028 13.2533 34.6007 13.0934 34.7604C12.9334 34.9201 12.7353 35 12.4988 35C12.2624 35 12.0646 34.9201 11.9054 34.7604C11.7462 34.6007 11.6666 34.4028 11.6666 34.1667V28.7308Z" fill="white"/>
</g>
</svg>
